<?xml version="1.0" encoding="UTF-8"?><svg xmlns="http://www.w3.org/2000/svg" xmlns:xlink="http://www.w3.org/1999/xlink" fill-opacity="1" color-rendering="auto" color-interpolation="auto" text-rendering="auto" stroke="black" stroke-linecap="square" width="1317" stroke-miterlimit="10" shape-rendering="auto" stroke-opacity="1" fill="black" stroke-dasharray="none" font-weight="normal" stroke-width="1" height="725" font-family="'Dialog'" font-style="normal" stroke-linejoin="miter" font-size="12px" stroke-dashoffset="0" image-rendering="auto">
  <!--Generated by ySVG 2.5-->
  <defs id="genericDefs"/>
  <g>
    <defs id="defs1">
      <clipPath clipPathUnits="userSpaceOnUse" id="clipPath1">
        <path d="M0 0 L1317 0 L1317 725 L0 725 L0 0 Z"/>
      </clipPath>
      <clipPath clipPathUnits="userSpaceOnUse" id="clipPath2">
        <path d="M20 -64 L1337 -64 L1337 661 L20 661 L20 -64 Z"/>
      </clipPath>
    </defs>
    <g fill="white" text-rendering="geometricPrecision" shape-rendering="geometricPrecision" transform="translate(-20,64)" stroke="white">
      <rect x="20" width="1317" height="725" y="-64" clip-path="url(#clipPath2)" stroke="none"/>
    </g>
    <g fill="silver" text-rendering="geometricPrecision" shape-rendering="geometricPrecision" transform="matrix(1,0,0,1,-20,64)" stroke="silver">
      <rect x="932.5" width="168" height="94" y="104.5" clip-path="url(#clipPath2)" stroke="none"/>
    </g>
    <g text-rendering="geometricPrecision" stroke-miterlimit="1.45" shape-rendering="geometricPrecision" transform="matrix(1,0,0,1,-20,64)" stroke-linecap="butt">
      <rect fill="none" x="932.5" width="168" height="94" y="104.5" clip-path="url(#clipPath2)"/>
      <text x="999.4932" xml:space="preserve" y="156.2139" clip-path="url(#clipPath2)" font-family="sans-serif" stroke="none">Profile</text>
    </g>
    <g fill="rgb(255,204,0)" text-rendering="geometricPrecision" shape-rendering="geometricPrecision" transform="matrix(1,0,0,1,-20,64)" stroke="rgb(255,204,0)">
      <ellipse rx="81.5" ry="32.5" clip-path="url(#clipPath2)" cx="116.5" cy="423.5" stroke="none"/>
    </g>
    <g text-rendering="geometricPrecision" stroke-miterlimit="1.45" shape-rendering="geometricPrecision" transform="matrix(1,0,0,1,-20,64)" stroke-linecap="butt">
      <ellipse rx="81.5" fill="none" ry="32.5" clip-path="url(#clipPath2)" cx="116.5" cy="423.5"/>
      <text x="81.8184" xml:space="preserve" y="428.2139" clip-path="url(#clipPath2)" font-family="sans-serif" stroke="none">productFacts</text>
    </g>
    <g fill="rgb(255,204,0)" text-rendering="geometricPrecision" shape-rendering="geometricPrecision" transform="matrix(1,0,0,1,-20,64)" stroke="rgb(255,204,0)">
      <ellipse rx="81.5" ry="32.5" clip-path="url(#clipPath2)" cx="1240.46" cy="151.5" stroke="none"/>
    </g>
    <g text-rendering="geometricPrecision" stroke-miterlimit="1.45" shape-rendering="geometricPrecision" transform="matrix(1,0,0,1,-20,64)" stroke-linecap="butt">
      <ellipse rx="81.5" fill="none" ry="32.5" clip-path="url(#clipPath2)" cx="1240.46" cy="151.5"/>
      <text x="1196.4414" xml:space="preserve" y="156.2139" clip-path="url(#clipPath2)" font-family="sans-serif" stroke="none">profileUsername</text>
    </g>
    <g fill="rgb(255,204,0)" text-rendering="geometricPrecision" shape-rendering="geometricPrecision" transform="matrix(1,0,0,1,-20,64)" stroke="rgb(255,204,0)">
      <ellipse rx="81.5" ry="32.5" clip-path="url(#clipPath2)" cx="788.74" cy="151.5" stroke="none"/>
    </g>
    <g text-rendering="geometricPrecision" stroke-miterlimit="1.45" shape-rendering="geometricPrecision" transform="matrix(1,0,0,1,-20,64)" stroke-linecap="butt">
      <ellipse rx="81.5" fill="none" ry="32.5" clip-path="url(#clipPath2)" cx="788.74" cy="151.5"/>
      <text x="767.3943" xml:space="preserve" y="156.2139" clip-path="url(#clipPath2)" font-family="sans-serif" stroke="none">profileId</text>
      <line y2="158.8506" fill="none" x1="767.3943" clip-path="url(#clipPath2)" x2="810.0857" y1="158.8506"/>
    </g>
    <g fill="silver" text-rendering="geometricPrecision" shape-rendering="geometricPrecision" transform="matrix(1,0,0,1,-20,64)" stroke="silver">
      <rect x="349.5" width="168" height="94" y="362" clip-path="url(#clipPath2)" stroke="none"/>
    </g>
    <g text-rendering="geometricPrecision" stroke-miterlimit="1.45" shape-rendering="geometricPrecision" transform="matrix(1,0,0,1,-20,64)" stroke-linecap="butt">
      <rect fill="none" x="349.5" width="168" height="94" y="362" clip-path="url(#clipPath2)"/>
      <text x="412.8223" xml:space="preserve" y="413.7139" clip-path="url(#clipPath2)" font-family="sans-serif" stroke="none">Product</text>
    </g>
    <g fill="silver" text-rendering="geometricPrecision" shape-rendering="geometricPrecision" transform="matrix(1,0,0,1,-20,64)" stroke="silver">
      <rect x="932.5" width="168" height="94" y="316" clip-path="url(#clipPath2)" stroke="none"/>
      <rect x="932.5" y="316" clip-path="url(#clipPath2)" fill="white" width="1" height="94" stroke="none"/>
      <rect x="933.5" y="316" clip-path="url(#clipPath2)" fill="white" width="166" height="1" stroke="none"/>
      <rect x="933.5" y="409" clip-path="url(#clipPath2)" fill="rgb(134,134,134)" width="167" height="1" stroke="none"/>
      <rect x="1099.5" y="316" clip-path="url(#clipPath2)" fill="rgb(134,134,134)" width="1" height="93" stroke="none"/>
    </g>
    <g text-rendering="geometricPrecision" stroke-miterlimit="1.45" shape-rendering="geometricPrecision" font-family="sans-serif" transform="matrix(1,0,0,1,-20,64)" stroke-linecap="butt">
      <text x="999.8242" xml:space="preserve" y="367.7139" clip-path="url(#clipPath2)" stroke="none">Select</text>
    </g>
    <g fill="rgb(255,204,0)" text-rendering="geometricPrecision" shape-rendering="geometricPrecision" transform="matrix(1,0,0,1,-20,64)" stroke="rgb(255,204,0)">
      <ellipse rx="81.5" ry="32.5" clip-path="url(#clipPath2)" cx="157.02" cy="291.5" stroke="none"/>
    </g>
    <g text-rendering="geometricPrecision" stroke-miterlimit="1.45" shape-rendering="geometricPrecision" transform="matrix(1,0,0,1,-20,64)" stroke-linecap="butt">
      <ellipse rx="81.5" fill="none" ry="32.5" clip-path="url(#clipPath2)" cx="157.02" cy="291.5"/>
      <text x="132.0034" xml:space="preserve" y="296.2139" clip-path="url(#clipPath2)" font-family="sans-serif" stroke="none">productId</text>
      <line y2="298.8506" fill="none" x1="132.0034" clip-path="url(#clipPath2)" x2="182.0366" y1="298.8506"/>
    </g>
    <g fill="rgb(255,204,0)" text-rendering="geometricPrecision" shape-rendering="geometricPrecision" transform="matrix(1,0,0,1,-20,64)" stroke="rgb(255,204,0)">
      <ellipse rx="81.5" ry="32.5" clip-path="url(#clipPath2)" cx="320.22" cy="613.5" stroke="none"/>
    </g>
    <g text-rendering="geometricPrecision" stroke-miterlimit="1.45" shape-rendering="geometricPrecision" transform="matrix(1,0,0,1,-20,64)" stroke-linecap="butt">
      <ellipse rx="81.5" fill="none" ry="32.5" clip-path="url(#clipPath2)" cx="320.22" cy="613.5"/>
      <text x="281.5393" xml:space="preserve" y="618.2139" clip-path="url(#clipPath2)" font-family="sans-serif" stroke="none">productHistory</text>
    </g>
    <g fill="rgb(255,204,0)" text-rendering="geometricPrecision" shape-rendering="geometricPrecision" transform="matrix(1,0,0,1,-20,64)" stroke="rgb(255,204,0)">
      <ellipse rx="81.5" ry="32.5" clip-path="url(#clipPath2)" cx="543.02" cy="613.5" stroke="none"/>
    </g>
    <g text-rendering="geometricPrecision" stroke-miterlimit="1.45" shape-rendering="geometricPrecision" transform="matrix(1,0,0,1,-20,64)" stroke-linecap="butt">
      <ellipse rx="81.5" fill="none" ry="32.5" clip-path="url(#clipPath2)" cx="543.02" cy="613.5"/>
      <text x="507.0024" xml:space="preserve" y="618.2139" clip-path="url(#clipPath2)" font-family="sans-serif" stroke="none">productName</text>
    </g>
    <g fill="rgb(255,204,0)" text-rendering="geometricPrecision" shape-rendering="geometricPrecision" transform="matrix(1,0,0,1,-20,64)" stroke="rgb(255,204,0)">
      <ellipse rx="81.5" ry="32.5" clip-path="url(#clipPath2)" cx="163.42" cy="518.5" stroke="none"/>
    </g>
    <g text-rendering="geometricPrecision" stroke-miterlimit="1.45" shape-rendering="geometricPrecision" transform="matrix(1,0,0,1,-20,64)" stroke-linecap="butt">
      <ellipse rx="81.5" fill="none" ry="32.5" clip-path="url(#clipPath2)" cx="163.42" cy="518.5"/>
      <text x="129.4005" xml:space="preserve" y="523.2139" clip-path="url(#clipPath2)" font-family="sans-serif" stroke="none">productHash</text>
    </g>
    <g fill="rgb(255,204,0)" text-rendering="geometricPrecision" shape-rendering="geometricPrecision" transform="matrix(1,0,0,1,-20,64)" stroke="rgb(255,204,0)">
      <ellipse rx="81.5" ry="32.5" clip-path="url(#clipPath2)" cx="1240.46" cy="363" stroke="none"/>
    </g>
    <g text-rendering="geometricPrecision" stroke-miterlimit="1.45" shape-rendering="geometricPrecision" transform="matrix(1,0,0,1,-20,64)" stroke-linecap="butt">
      <ellipse rx="81.5" fill="none" ry="32.5" clip-path="url(#clipPath2)" cx="1240.46" cy="363"/>
      <text x="1199.1045" xml:space="preserve" y="367.7139" clip-path="url(#clipPath2)" font-family="sans-serif" stroke="none">selectProductId</text>
    </g>
    <g fill="rgb(255,204,0)" text-rendering="geometricPrecision" shape-rendering="geometricPrecision" transform="matrix(1,0,0,1,-20,64)" stroke="rgb(255,204,0)">
      <ellipse rx="81.5" ry="32.5" clip-path="url(#clipPath2)" cx="1016.5" cy="487.25" stroke="none"/>
    </g>
    <g text-rendering="geometricPrecision" stroke-miterlimit="1.45" shape-rendering="geometricPrecision" transform="matrix(1,0,0,1,-20,64)" stroke-linecap="butt">
      <ellipse rx="81.5" fill="none" ry="32.5" clip-path="url(#clipPath2)" cx="1016.5" cy="487.25"/>
      <text x="978.8154" xml:space="preserve" y="491.9639" clip-path="url(#clipPath2)" font-family="sans-serif" stroke="none">selectProfileId</text>
    </g>
    <g fill="silver" text-rendering="geometricPrecision" shape-rendering="geometricPrecision" transform="matrix(1,0,0,1,-20,64)" stroke="silver">
      <path d="M735.2405 362.9999 L788.7405 315.9999 L842.2405 362.9999 L788.7405 409.9999 Z" fill-rule="evenodd" clip-path="url(#clipPath2)" stroke="none"/>
    </g>
    <g text-rendering="geometricPrecision" stroke-miterlimit="1.45" shape-rendering="geometricPrecision" transform="matrix(1,0,0,1,-20,64)" stroke-linecap="butt">
      <path fill="none" d="M735.2405 362.9999 L788.7405 315.9999 L842.2405 362.9999 L788.7405 409.9999 Z" fill-rule="evenodd" clip-path="url(#clipPath2)"/>
      <text x="755.3884" xml:space="preserve" y="367.7139" clip-path="url(#clipPath2)" font-family="sans-serif" stroke="none">Are selected</text>
    </g>
    <g fill="rgb(255,204,0)" text-rendering="geometricPrecision" shape-rendering="geometricPrecision" transform="matrix(1,0,0,1,-20,64)" stroke="rgb(255,204,0)">
      <ellipse rx="81.5" ry="32.5" clip-path="url(#clipPath2)" cx="1240.46" cy="25.22" stroke="none"/>
    </g>
    <g text-rendering="geometricPrecision" stroke-miterlimit="1.45" shape-rendering="geometricPrecision" transform="matrix(1,0,0,1,-20,64)" stroke-linecap="butt">
      <ellipse rx="81.5" fill="none" ry="32.5" clip-path="url(#clipPath2)" cx="1240.46" cy="25.22"/>
      <text x="1201.4336" xml:space="preserve" y="29.9339" clip-path="url(#clipPath2)" font-family="sans-serif" stroke="none">profileLocation</text>
    </g>
    <g fill="rgb(255,204,0)" text-rendering="geometricPrecision" shape-rendering="geometricPrecision" transform="matrix(1,0,0,1,-20,64)" stroke="rgb(255,204,0)">
      <ellipse rx="81.5" ry="32.5" clip-path="url(#clipPath2)" cx="1014" cy="-16.42" stroke="none"/>
    </g>
    <g text-rendering="geometricPrecision" stroke-miterlimit="1.45" shape-rendering="geometricPrecision" transform="matrix(1,0,0,1,-20,64)" stroke-linecap="butt">
      <ellipse rx="81.5" fill="none" ry="32.5" clip-path="url(#clipPath2)" cx="1014" cy="-16.42"/>
      <text x="972.9844" xml:space="preserve" y="-11.7061" clip-path="url(#clipPath2)" font-family="sans-serif" stroke="none">profileFavorites</text>
    </g>
    <g fill="rgb(255,204,0)" text-rendering="geometricPrecision" shape-rendering="geometricPrecision" transform="matrix(1,0,0,1,-20,64)" stroke="rgb(255,204,0)">
      <ellipse rx="81.5" ry="32.5" clip-path="url(#clipPath2)" cx="788.74" cy="25.22" stroke="none"/>
    </g>
    <g text-rendering="geometricPrecision" stroke-miterlimit="1.45" shape-rendering="geometricPrecision" transform="matrix(1,0,0,1,-20,64)" stroke-linecap="butt">
      <ellipse rx="81.5" fill="none" ry="32.5" clip-path="url(#clipPath2)" cx="788.74" cy="25.22"/>
      <text x="757.3953" xml:space="preserve" y="29.9339" clip-path="url(#clipPath2)" font-family="sans-serif" stroke="none">profileEmail</text>
    </g>
    <g fill="rgb(255,204,0)" text-rendering="geometricPrecision" shape-rendering="geometricPrecision" transform="matrix(1,0,0,1,-20,64)" stroke="rgb(255,204,0)">
      <ellipse rx="81.5" ry="32.5" clip-path="url(#clipPath2)" cx="350.02" cy="226.5" stroke="none"/>
    </g>
    <g text-rendering="geometricPrecision" stroke-miterlimit="1.45" shape-rendering="geometricPrecision" transform="matrix(1,0,0,1,-20,64)" stroke-linecap="butt">
      <ellipse rx="81.5" fill="none" ry="32.5" clip-path="url(#clipPath2)" cx="350.02" cy="226.5"/>
      <text x="316.3374" xml:space="preserve" y="231.2139" clip-path="url(#clipPath2)" font-family="sans-serif" stroke="none">productPrice</text>
    </g>
    <g fill="rgb(255,204,0)" text-rendering="geometricPrecision" shape-rendering="geometricPrecision" transform="matrix(1,0,0,1,-20,64)" stroke="rgb(255,204,0)">
      <ellipse rx="81.5" ry="32.5" clip-path="url(#clipPath2)" cx="691.58" cy="518.5" stroke="none"/>
    </g>
    <g text-rendering="geometricPrecision" stroke-miterlimit="1.45" shape-rendering="geometricPrecision" transform="matrix(1,0,0,1,-20,64)" stroke-linecap="butt">
      <ellipse rx="81.5" fill="none" ry="32.5" clip-path="url(#clipPath2)" cx="691.58" cy="518.5"/>
      <text x="652.8935" xml:space="preserve" y="523.2139" clip-path="url(#clipPath2)" font-family="sans-serif" stroke="none">productVariety</text>
    </g>
    <g fill="rgb(255,204,0)" text-rendering="geometricPrecision" shape-rendering="geometricPrecision" transform="matrix(1,0,0,1,-20,64)" stroke="rgb(255,204,0)">
      <ellipse rx="81.5" ry="32.5" clip-path="url(#clipPath2)" cx="543.02" cy="226.5" stroke="none"/>
    </g>
    <g text-rendering="geometricPrecision" stroke-miterlimit="1.45" shape-rendering="geometricPrecision" transform="matrix(1,0,0,1,-20,64)" stroke-linecap="butt">
      <ellipse rx="81.5" fill="none" ry="32.5" clip-path="url(#clipPath2)" cx="543.02" cy="226.5"/>
      <text x="496.3266" xml:space="preserve" y="231.2139" clip-path="url(#clipPath2)" font-family="sans-serif" stroke="none">productVariations</text>
      <path fill="none" d="M1100.5 151.5 L1150.96 151.5" clip-path="url(#clipPath2)"/>
      <path d="M1158.96 151.5 L1146.96 146.5 L1149.96 151.5 L1146.96 156.5 Z" clip-path="url(#clipPath2)" stroke="none"/>
      <path fill="none" d="M932.5 151.5 L878.24 151.5" clip-path="url(#clipPath2)"/>
      <path d="M870.24 151.5 L882.24 156.5 L879.24 151.5 L882.24 146.5 Z" clip-path="url(#clipPath2)" stroke="none"/>
      <path fill="none" d="M349.5 412.8423 L205.4607 419.4308" clip-path="url(#clipPath2)"/>
      <path d="M197.4691 419.7964 L209.685 424.2428 L206.4597 419.3851 L209.2281 414.2533 Z" clip-path="url(#clipPath2)" stroke="none"/>
      <path fill="none" d="M1016.5 198.5 L1016.5 307.9713" clip-path="url(#clipPath2)"/>
      <path d="M1016.5 315.9713 L1021.5 303.9713 L1016.5 306.9713 L1011.5 303.9713 Z" clip-path="url(#clipPath2)" stroke="none"/>
      <path fill="none" d="M349.5 373.3012 L220.1499 318.3293" clip-path="url(#clipPath2)"/>
      <path d="M212.7872 315.2003 L221.8756 324.4955 L221.0702 318.7204 L225.7868 315.2921 Z" clip-path="url(#clipPath2)" stroke="none"/>
      <path fill="none" d="M407.465 456 L341.6756 574.767" clip-path="url(#clipPath2)"/>
      <path d="M337.7992 581.765 L347.9877 573.6907 L342.1602 573.8922 L339.2401 568.8451 Z" clip-path="url(#clipPath2)" stroke="none"/>
      <path fill="none" d="M458.6709 456 L522.2216 574.6644" clip-path="url(#clipPath2)"/>
      <path d="M525.9985 581.7167 L524.7409 568.7777 L521.7495 573.7829 L515.9255 573.4988 Z" clip-path="url(#clipPath2)" stroke="none"/>
      <path fill="none" d="M349.5 443.0566 L227.9837 492.3236" clip-path="url(#clipPath2)"/>
      <path d="M220.5698 495.3294 L233.5692 495.4543 L228.9104 491.9479 L229.8119 486.187 Z" clip-path="url(#clipPath2)" stroke="none"/>
      <path fill="none" d="M1100.5123 363 L1150.96 363" clip-path="url(#clipPath2)"/>
      <path d="M1158.96 363 L1146.96 358 L1149.96 363 L1146.96 368 Z" clip-path="url(#clipPath2)" stroke="none"/>
      <path fill="none" d="M1016.5 409.9881 L1016.5 446.75" clip-path="url(#clipPath2)"/>
      <path d="M1016.5 454.75 L1021.5 442.75 L1016.5 445.75 L1011.5 442.75 Z" clip-path="url(#clipPath2)" stroke="none"/>
      <path fill="none" d="M517.5 398.1228 L734.1537 370.0684" clip-path="url(#clipPath2)"/>
      <path d="M742.0875 369.041 L729.5448 365.6234 L733.162 370.1968 L730.829 375.5406 Z" clip-path="url(#clipPath2)" stroke="none"/>
      <path fill="none" d="M842.2603 363 L924.4855 363" clip-path="url(#clipPath2)"/>
      <path d="M932.4855 363 L920.4855 358 L923.4855 363 L920.4855 368 Z" clip-path="url(#clipPath2)" stroke="none"/>
      <path fill="none" d="M1099.8553 104.5 L1186.4319 55.6838" clip-path="url(#clipPath2)"/>
      <path d="M1193.4004 51.7545 L1180.4917 53.2931 L1185.5608 56.175 L1185.4033 62.0038 Z" clip-path="url(#clipPath2)" stroke="none"/>
      <path fill="none" d="M1015.8002 104.5 L1014.603 24.0785" clip-path="url(#clipPath2)"/>
      <path d="M1014.4838 16.0794 L1009.6631 28.1526 L1014.6179 25.0784 L1019.662 28.0036 Z" clip-path="url(#clipPath2)" stroke="none"/>
      <path fill="none" d="M932.5 104.9268 L843.3239 55.4837" clip-path="url(#clipPath2)"/>
      <path d="M836.3273 51.6045 L844.3977 61.7961 L844.1985 55.9686 L849.2466 53.0504 Z" clip-path="url(#clipPath2)" stroke="none"/>
      <path fill="none" d="M412.001 362 L367.9727 265.7475" clip-path="url(#clipPath2)"/>
      <path d="M364.645 258.4724 L365.0898 271.4648 L368.3887 266.6569 L374.1835 267.3051 Z" clip-path="url(#clipPath2)" stroke="none"/>
      <path fill="none" d="M517.5 444.6401 L628.3995 491.6933" clip-path="url(#clipPath2)"/>
      <path d="M635.764 494.818 L626.6702 485.5281 L627.4789 491.3027 L622.7643 494.7338 Z" clip-path="url(#clipPath2)" stroke="none"/>
      <path fill="none" d="M461.7051 362 L519.9355 264.9672" clip-path="url(#clipPath2)"/>
      <path d="M524.052 258.1075 L513.59 265.8242 L519.4209 265.8246 L522.1645 270.9698 Z" clip-path="url(#clipPath2)" stroke="none"/>
    </g>
  </g>
</svg>
